<?xml version="1.0" standalone="no"?>
<!DOCTYPE svg PUBLIC "-//W3C//DTD SVG 20010904//EN"
 "http://www.w3.org/TR/2001/REC-SVG-20010904/DTD/svg10.dtd">
<svg version="1.0" xmlns="http://www.w3.org/2000/svg"
 width="260.000000pt" height="260.000000pt" viewBox="0 0 260.000000 260.000000"
 preserveAspectRatio="xMidYMid meet">

<g transform="translate(0.000000,260.000000) scale(0.100000,-0.100000)"
fill="#000000" stroke="none">
<path d="M61 2524 c-36 -26 -54 -79 -41 -120 22 -66 45 -74 206 -74 l143 0 22
-72 c11 -40 102 -344 200 -676 l180 -603 -24 -62 c-51 -128 -43 -209 27 -282
74 -77 151 -87 461 -60 281 24 617 44 855 51 124 4 232 10 241 15 9 5 22 22
29 39 11 27 11 37 -3 65 -25 52 -64 59 -302 51 -224 -7 -431 -19 -705 -41
-326 -27 -396 -29 -429 -16 -35 15 -43 31 -35 71 8 36 -48 26 534 96 958 114
919 108 951 141 26 26 33 54 124 525 91 471 95 499 81 532 -29 70 28 66 -1005
66 l-930 0 -21 73 c-12 39 -33 110 -47 157 -17 61 -33 93 -54 113 l-29 27
-203 0 c-171 0 -206 -3 -226 -16z m1179 -744 l0 -170 -217 2 -216 3 -48 160
c-27 88 -49 163 -49 168 0 4 119 7 265 7 l265 0 0 -170z m540 0 l0 -170 -220
0 -220 0 0 170 0 170 220 0 220 0 0 -170z m566 153 c-2 -10 -17 -79 -31 -153
-14 -74 -29 -143 -31 -152 -5 -16 -23 -18 -205 -18 l-199 0 0 170 0 170 236 0
c219 0 235 -1 230 -17z m-1137 -429 l31 -6 0 -199 c0 -110 -4 -199 -8 -199 -4
0 -61 -7 -126 -15 -65 -9 -123 -14 -129 -12 -5 1 -38 97 -73 213 l-62 209 82
6 c125 8 250 10 285 3z m435 -1 l136 -6 -2 -166 -3 -166 -105 -12 c-58 -7
-156 -18 -217 -26 l-113 -14 0 193 0 193 33 4 c57 7 131 7 271 0z m612 -6 c4
-3 -46 -269 -51 -275 -4 -4 -279 -41 -307 -42 -16 0 -18 14 -18 158 0 87 2
161 5 164 6 6 365 1 371 -5z"/>
<path d="M779 447 c-68 -36 -103 -93 -107 -176 -6 -97 29 -160 113 -204 118
-62 276 13 304 143 14 64 4 113 -33 168 -60 89 -181 119 -277 69z"/>
<path d="M2009 450 c-114 -60 -151 -197 -83 -307 80 -130 278 -129 358 0 69
112 31 248 -85 308 -50 25 -141 25 -190 -1z"/>
</g>
</svg>
